<?xml version="1.0" standalone="yes"?>
<svg width="638" height="204">
<path style="fill:#fbfbfb; stroke:none;" d="M0 0L0 204L638 204L638 0L0 0z"/>
<path style="fill:#131313; stroke:none;" d="M32 11L32 46C43.6514 43.6041 54.3096 44.8157 66 44.8765C71.6002 44.9057 77.5532 42.8959 82.956 45.1481C90.3856 48.2453 90.897 62.6404 87.6821 68.9815C82.9743 78.2671 63.5793 67.5424 64.6721 80.9961C65.5772 92.1398 77.0837 84.671 82.9815 87.358C89.8704 90.4966 89 98.742 89 105L94 105C94.0038 99.2722 93.951 92.9452 97.652 88.1736C105.924 77.5086 122.735 78.019 129.583 90.0394C132.221 94.671 131.999 99.8596 132 105C136.939 105 142.922 104.126 146.566 108.228C150.466 112.619 149 120.579 149 126C149 140.719 152.917 159.909 140.985 170.892C132.806 178.42 121.277 177 111 177C102.76 177 94.079 175.532 86 175.839C68.5307 176.503 49.1549 179.821 32 175L32 195L505 195C497.953 184.995 488.889 177.395 505 171C495.954 160.14 483.256 175.687 473 177.535C461.093 179.681 452.355 173.162 443 167C439.279 181.206 414.508 176 403 176C397.577 176 392.165 174.057 387 174.128C372.125 174.332 356.04 180.158 351.518 159C350.092 152.331 351 144.795 351 138C347.937 137.639 345.239 137.45 342.17 137.845C338.94 138.261 335.068 137.451 332.148 139.179C323.309 144.41 331.561 163.997 326.872 171.892C322.783 178.777 308.51 177.521 305 171L304 171C298.573 177.846 291.674 175.445 284 175.47C279.182 175.486 274.912 178.161 270 177.892C263.793 177.552 258.795 173.701 253 172C244.354 182.642 225.812 177.991 219.533 166.999C214.599 158.362 216 147.538 216 138L212 137C214.657 148.591 216.526 159.468 206.895 168.815C191.387 183.864 156.214 178.723 153.133 154C152.194 146.471 166.876 139.526 172.867 143.1C176.329 145.164 176.764 149.78 180.214 151.821C182.148 152.965 188.499 154.122 189.079 150.725C189.859 146.15 179.957 143.838 177 142.573C167.118 138.343 157.351 132.54 155.329 121C149.914 90.1082 198.18 80.3258 210.16 107C213.919 115.369 202.722 122.534 195.001 121.381C189.059 120.494 186.738 115.08 180 115C183.725 122.453 199.487 126.492 207 130C207.076 120.894 212.063 120.463 215.397 113.586C217.414 109.426 215.603 104.961 220.133 101.858C231.561 94.0314 240.97 104.023 241 115C245.957 115.258 249.63 116.443 252 121C269.237 115.545 294.861 105.511 303 131L304 131C304.016 106.796 331.22 118.085 346.941 115.922C352.391 115.172 350.029 106.766 353.395 103.279C358.109 98.3944 369.306 98.5348 373.411 104.109C375.941 107.544 375.251 112.056 376 116C380.382 115.616 383.106 116.689 386 120L387 120C387 113.805 384.706 102.367 388.129 97.0193C392.31 90.4862 407.281 91.2455 410.821 98.0193C413.262 102.69 412 109.886 412 115L412 152L437 152C430.734 118.226 483.461 95.865 495 132L496 132C500.546 121.6 510.186 113.56 522 113.718C526.488 113.777 530.609 116.113 535 116.107C543.967 116.095 552.971 112.437 556 124C572.419 112.784 597.676 106.529 608 130L609 130C609 114.765 603.433 93.0023 624 93L624 11L179 11C188.977 25.6521 187 39.7722 187 57C187 62.0649 188.571 70.4693 185.258 74.7215C181.598 79.4176 171.265 78.6183 166 77.7863C150.366 75.3154 166.233 54.8028 151.996 53.4529C148.375 53.1096 145.18 55.53 144.322 59.0154C143.074 64.0834 147.294 69.2853 143.552 73.7863C138.838 79.4554 122.472 80.5662 117.514 74.7716C114.336 71.0579 115.001 65.538 115 61C85.3065 67.8203 84.6527 17.0262 115 24L116 11L32 11z"/>
<path style="fill:#8dceac; stroke:none;" d="M122 12L122 13L168 13C156.061 7.99023 135.003 12 122 12z"/>
<path style="fill:#86d2a4; stroke:none;" d="M121 13L121 29L122 29L121 13z"/>
<path style="fill:#48bb76; stroke:none;" d="M122 13C122 17.3078 123.703 26.4035 119.682 29.2924C116.975 31.2375 113.011 29.0789 110 29.0864C102.78 29.1045 97.137 34.8043 97.0833 42C97.0279 49.43 102.338 55.8973 110 55.9136C113.07 55.9201 117.793 53.273 120.397 55.6466C123.585 58.5535 122 67.0753 122 71L139 71C138.878 66.7784 136.513 62.0782 137.837 58C141.67 46.1988 155.522 44.2813 162.695 53.9537C166.413 58.9675 161.463 68.2411 164.644 70.9722C167.828 73.7068 176.996 72 181 72L181 35C181 29.1386 181.917 22.867 177.656 18.1852C172.508 12.5284 165.999 13 159 13L122 13z"/>
<path style="fill:#a2d8b3; stroke:none;" d="M181 25L181 72L182 72C182 58.735 186.11 37.1767 181 25z"/>
<path style="fill:#7ea3c7; stroke:none;" d="M36 50L36 51L82 51L82 68L83 68L83 50L36 50z"/>
<path style="fill:#2c72b8; stroke:none;" d="M24 103C31.8257 103 41.3087 101.392 46.2608 109.054C49.8528 114.611 41.3901 129.133 52.9884 128.833C63.3207 128.565 55.4986 115.42 58.8943 110.015C64.1959 101.576 73.3879 103 82 103L82 92C77.4686 92.3951 72.454 94.8895 68 93.1381C55.9076 88.3832 56.0389 73.4605 67.0147 67.7276C72.0666 65.0889 76.8566 68.2296 82 69L82 51L44 51C37.5532 51 31.2218 50.564 26.804 56.1852C19.247 65.8006 24 91.1464 24 103z"/>
<path style="fill:#8ecfad; stroke:none;" d="M121 55L121 72L122 72L121 55z"/>
<path style="fill:#76ce9c; stroke:none;" d="M137 57L137 64L138 64L137 57z"/>
<path style="fill:#7ecfa6; stroke:none;" d="M165 57L165 63L166 63L165 57z"/>
<path style="fill:#9fc4dc; stroke:none;" d="M23.3333 61.6667L23.6667 62.3333L23.3333 61.6667z"/>
<path style="fill:#4f82b1; stroke:none;" d="M23 63L23 104L41 104L41 103L24 103C24 91.566 27.411 73.5119 23 63z"/>
<path style="fill:#cfe2f1; stroke:none;" d="M22 66L22 103L23 103C23 92.3512 26.1113 75.7978 22 66z"/>
<path style="fill:#79a2da; stroke:none;" d="M68 66L68 67L74 67L68 66z"/>
<path style="fill:#8ccfb0; stroke:none;" d="M139 67L139 71L140 71L139 67z"/>
<path style="fill:#6cbf93; stroke:none;" d="M122 71L122 72L138 72L122 71z"/>
<path style="fill:#cdefdb; stroke:none;" d="M165 72L165 73L181 73L165 72z"/>
<path style="fill:#b8dbf0; stroke:none;" d="M58 76L58 82L59 82L58 76z"/>
<path style="fill:#2b71b7; stroke:none;" d="M90 111L90 120C120.346 120.646 121.194 159.534 91 162L91 170L122 170C127.013 170 132.736 170.837 136.956 167.566C142.762 163.067 142 156.575 142 150L142 112C137.761 112 128.042 113.798 125.447 109.467C124.102 107.222 125.896 103.458 125.981 100.985C126.265 92.8231 121.806 86.354 113 86.1366C104.965 85.9382 99.8561 92.44 100.022 100C100.079 102.568 102.084 107.095 100.268 109.258C98.1295 111.804 92.9323 110.998 90 111z"/>
<path style="fill:#5c8eb3; stroke:none;" d="M82 93L82 103L65 103L65 104L83 104L82 93z"/>
<path style="fill:#9eb3cb; stroke:none;" d="M99 97L99 102L100 102L99 97z"/>
<path style="fill:#7697ba; stroke:none;" d="M126 97L126 102L127 102L126 97z"/>
<path style="fill:#47b974; stroke:none;" d="M171 147L158 152C167.096 178.663 213.128 178.319 208.812 146C207.165 133.669 194.748 130.127 185 126.177C181.095 124.595 173.591 121.295 174.176 116.003C175.794 101.368 191.313 114.947 196.17 115.469C199.427 115.82 206.101 112.992 205.11 108.945C200.578 90.4415 164.262 94.1698 161.225 112C159.177 124.02 166.004 132.703 177 136.935C183.095 139.281 193.234 141.52 195.069 149.001C196.563 155.093 188.277 160.128 183 159.407C176.669 158.541 172.902 152.443 171 147z"/>
<path style="fill:#c1e3d1; stroke:none;" d="M188 97L188 98L192 98L188 97z"/>
<path style="fill:#a3c2db; stroke:none;" d="M393 98L393 99L406 99L393 98z"/>
<path style="fill:#a6c2db; stroke:none;" d="M615 98L615 99L627 99L615 98z"/>
<path style="fill:#b1cde7; stroke:none;" d="M392 99L392 170L393 170L393 121L392 99z"/>
<path style="fill:#336ca1; stroke:none;" d="M393 99L393 170L436 170L436 158L406 157C411.077 162.901 428.07 160.287 435 159L434 168L394 168L394 100L404 100L404 155L405 155L405 99L393 99z"/>
<path style="fill:#5585b3; stroke:none;" d="M405 99L405 157L406 157L406 118L405 99z"/>
<path style="fill:#4675a9; stroke:none;" d="M615 99L615 168L616 168L616 121L615 99z"/>
<path style="fill:#2a75b9; stroke:none;" d="M616 99C616 121.888 619.179 147.489 615 170L627 170L627 99L616 99z"/>
<path style="fill:#6291bd; stroke:none;" d="M627 99L627 170L628 170L628 121L627 99z"/>
<path style="fill:#2a72ba; stroke:none;" d="M394 100L394 168L434 168L435 159C427.843 159.904 412.55 162.926 406.653 157.4C402.662 153.661 404 145.894 404 141L404 100L394 100z"/>
<path style="fill:#92bedd; stroke:none;" d="M101 106L101 110L102 110L101 106z"/>
<path style="fill:#81b8d6; stroke:none;" d="M124 106L124 110L125 110L124 106z"/>
<path style="fill:#47bc75; stroke:none;" d="M222 106L222 122L214 122L214 132L222 132C222 142.072 219.179 157.419 225.572 165.981C229.125 170.74 242.421 176.186 246.958 169.486C248.888 166.635 246.682 161.984 246 159C233.991 161.088 228.217 140.291 235.742 132.603C238.12 130.175 242.923 131 246 131L246 122L235 122L235 106L222 106z"/>
<path style="fill:#4cbb77; stroke:none;" d="M357 106L357 121L348 121L348 132C368.222 132.239 345.258 170.969 373 170.971C376.521 170.971 379.677 170.053 383 169L380 158C369.001 159.777 363.541 140.666 370.603 133.603C373.028 131.179 377.887 132 381 132L381 122C368.646 121.999 369 117.08 369 106L357 106z"/>
<path style="fill:#8ed4ae; stroke:none;" d="M369 106L369 121L370 121L369 106z"/>
<path style="fill:#b1e7cd; stroke:none;" d="M356 107L356 121L357 121L356 107z"/>
<path style="fill:#d9ecdd; stroke:none;" d="M23 110L23 111L39 111L23 110z"/>
<path style="fill:#caecdf; stroke:none;" d="M67 110L67 111L82 111L67 110z"/>
<path style="fill:#ccdbe7; stroke:none;" d="M90 110L90 111L100 111L90 110z"/>
<path style="fill:#c4d4e5; stroke:none;" d="M126 110L126 111L142 111L126 110z"/>
<path style="fill:#def3e7; stroke:none;" d="M22 111L22 157L23 157C23 143.997 27.0098 122.939 22 111z"/>
<path style="fill:#69bc90; stroke:none;" d="M23 111L23 158L24 158L24 112L41 113C37.5871 109.094 27.9301 111 23 111z"/>
<path style="fill:#4d8db0; stroke:none;" d="M57 111L58 119L59 119L57 111z"/>
<path style="fill:#48bb76; stroke:none;" d="M65 111C65.2189 116.021 67.1894 121.075 65.4221 125.999C61.9253 135.743 49.6258 139.352 42.8002 130.815C38.9719 126.027 42.3041 115.591 39.3534 113.028C36.3363 110.407 27.7942 112 24 112L24 150C24 155.923 23.4391 162.221 28.3295 166.566C32.4794 170.254 39.7873 169.992 45 170L82 170C82 166.084 80.2746 156.615 83.6034 153.846C85.9738 151.875 90.2643 153.842 93 153.953C101.261 154.287 107.956 148.659 107.802 140C107.666 132.403 100.242 126.838 93 127.144C90.0979 127.267 86.1402 129.474 83.6034 127.215C80.2898 124.263 82 115.044 82 111L65 111z"/>
<path style="fill:#7ec198; stroke:none;" d="M82 111L82 128L83 128L82 111z"/>
<path style="fill:#4c82ae; stroke:none;" d="M126 111L126 112L142 112L142 159L143 159L143 111L126 111z"/>
<path style="fill:#cfe2f0; stroke:none;" d="M143 111L143 157L144 157C144 143.997 148.01 122.939 143 111z"/>
<path style="fill:#b7dec8; stroke:none;" d="M41 112L41 115L42 115L41 112z"/>
<path style="fill:#b4dcc5; stroke:none;" d="M160 112L160 119L161 119L160 112z"/>
<path style="fill:#6f98cc; stroke:none;" d="M59 119L59 124L60 124L59 119z"/>
<path style="fill:#81cca1; stroke:none;" d="M270 119L270 120L279 120L270 119z"/>
<path style="fill:#78a5c6; stroke:none;" d="M462 119L462 120L472 120L462 119z"/>
<path style="fill:#749ac1; stroke:none;" d="M518 119L518 120L526 120L518 119z"/>
<path style="fill:#74a4d4; stroke:none;" d="M577 119L577 120L585 120L577 119z"/>
<path style="fill:#c1e0f5; stroke:none;" d="M90 120L90 121L97 121L90 120z"/>
<path style="fill:#45bd76; stroke:none;" d="M255 130C257.294 131.54 260.108 134.034 263 134.176C271.319 134.584 283.498 123.799 286 140C278.5 139.052 269.127 137.355 262.004 140.769C249.958 146.541 250.786 163.729 262.001 169.86C270.529 174.523 278.581 170.462 286 166L286 170L298 170C298 158.891 301.842 138.893 296.427 129.04C288.997 115.521 261.499 116.36 255 130z"/>
<path style="fill:#48ba75; stroke:none;" d="M322 127L322 122L310 122L310 170L322 170C322 153.577 318.48 130.043 342 133L341 120C332.877 120.005 328.311 121.943 322 127z"/>
<path style="fill:#a3d0b4; stroke:none;" d="M341 120L341 128L342 128L341 120z"/>
<path style="fill:#2c75b9; stroke:none;" d="M491 158C488.031 156.766 484.421 154.258 481.09 154.643C477.398 155.069 474.539 158.842 470.999 160.015C463.361 162.544 456.589 154.684 455 148L492 148C491.999 138.829 490.962 129.788 482.91 123.916C469.658 114.252 446.325 120.949 443.329 138C441.648 147.561 442.743 158.636 450.185 165.532C461.477 175.997 485.198 172.965 491 158z"/>
<path style="fill:#2a74bb; stroke:none;" d="M538 164C537.65 172.033 532.528 185.005 522 182.304C517.627 181.182 515.234 176.095 510.91 175.426C507.691 174.928 504.1 177.299 501 178C503.228 198.003 535.77 197.274 545.362 183.996C555.839 169.493 550 139.192 550 122L538 122L538 126C534.119 123.446 530.826 120.418 526 120.055C489.902 117.341 490.963 173.639 526 169.892C530.65 169.395 534.151 166.373 538 164z"/>
<path style="fill:#2972b6; stroke:none;" d="M560 130C562.299 131.543 565.104 134.025 568 134.177C576.278 134.609 588.526 124.016 591 140C582.222 138.37 569.205 137.114 562.344 144.228C551.031 155.957 564.116 172.881 578 171.903C583.963 171.483 587.082 167.574 592 165L592 170L603 170C603 158.822 607.04 137.707 600.991 128.04C593.044 115.343 566.286 116.634 560 130z"/>
<path style="fill:#73c390; stroke:none;" d="M213 121L213 131L214 131L214 122L222 122L213 121z"/>
<path style="fill:#6bb68b; stroke:none;" d="M235 121L235 122L246 122L246 131L235 131L235 132L247 132L247 121L235 121z"/>
<path style="fill:#8acfa9; stroke:none;" d="M310 121L310 122L321 122L310 121z"/>
<path style="fill:#8bc7a6; stroke:none;" d="M370 121L370 122L381 122L370 121z"/>
<path style="fill:#5b8dbe; stroke:none;" d="M538 121L538 122L550 122L538 121z"/>
<path style="fill:#d5efe2; stroke:none;" d="M309 122L309 170L310 170C310 156.474 314.209 134.414 309 122z"/>
<path style="fill:#83d7a5; stroke:none;" d="M381 122L381 132L382 132L381 122z"/>
<path style="fill:#75b4e0; stroke:none;" d="M537 122L536 126L537 122z"/>
<path style="fill:#c1ffd9; stroke:none;" d="M322 125L322 127L324 127L324 125L322 125z"/>
<path style="fill:#fbfbfb; stroke:none;" d="M456 139L479 139C476.425 126.352 459.755 127.986 456 139M520.004 131.742C504.425 137.75 513.081 163.811 529.996 157.258C544.498 151.639 535.481 125.774 520.004 131.742z"/>
<path style="fill:#cfe7d8; stroke:none;" d="M348 132L348 133L356 133L348 132z"/>
<path style="fill:#cce7da; stroke:none;" d="M370 132L370 133L381 133L370 132z"/>
<path style="fill:#76be98; stroke:none;" d="M234 133L234 155L235 155L234 133z"/>
<path style="fill:#bee7d0; stroke:none;" d="M356 133L356 155L357 155L356 133z"/>
<path style="fill:#9ed5b3; stroke:none;" d="M369 133L369 154L370 154L369 133z"/>
<path style="fill:#131313; stroke:none;" d="M386 134C382.826 137.597 379.652 137.958 375 138L375 153C380.52 152.277 383.406 154.121 386 159L387 159L386 134M241 138L241 154L247 154L256 137L241 138z"/>
<path style="fill:#4c85ba; stroke:none;" d="M603 135L603 170L604 170L603 135z"/>
<path style="fill:#d7e6f0; stroke:none;" d="M604 135L604 170L605 170L604 135z"/>
<path style="fill:#7dbf99; stroke:none;" d="M298 136L298 170L299 170L298 136z"/>
<path style="fill:#a2b6d6; stroke:none;" d="M114 137L114 143L115 143L114 137z"/>
<path style="fill:#bae4d0; stroke:none;" d="M268 138L268 139L280 139L268 138z"/>
<path style="fill:#8eadcc; stroke:none;" d="M574 138L574 139L583 139L574 138z"/>
<path style="fill:#a9dcc5; stroke:none;" d="M264.667 139.333L265.333 139.667L264.667 139.333z"/>
<path style="fill:#5c96c8; stroke:none;" d="M442 139L442 151L443 151L442 139z"/>
<path style="fill:#538ec8; stroke:none;" d="M456 139L456 140L479 140L456 139z"/>
<path style="fill:#6b96c0; stroke:none;" d="M567 140L567 141L571 140L567 140z"/>
<path style="fill:#a8c3e0; stroke:none;" d="M537 141L537 149L538 149L537 141z"/>
<path style="fill:#addcc2; stroke:none;" d="M322 142L322 170L323 170L322 142z"/>
<path style="fill:#bedeef; stroke:none;" d="M498 142L498 149L499 149L498 142z"/>
<path style="fill:#fbfbfb; stroke:none;" d="M271.019 148.742C260.251 153.041 269.501 164.949 278.985 160.991C292.04 155.542 281.61 144.514 271.019 148.742z"/>
<path style="fill:#c7dae9; stroke:none;" d="M455 148L455 149L492 149C482.202 144.889 465.649 148 455 148z"/>
<path style="fill:#fbfbfb; stroke:none;" d="M576.044 148.742C565.632 152.985 575.006 164.71 583.985 160.991C597.295 155.478 586.541 144.465 576.044 148.742z"/>
<path style="fill:#6b99cd; stroke:none;" d="M558 152L558 159L559 159L558 152z"/>
<path style="fill:#6bb790; stroke:none;" d="M82 153L82 170L33 169L33 170L83 171L82 153z"/>
<path style="fill:#b4e2c4; stroke:none;" d="M285.333 153.667L285.667 154.333L285.333 153.667z"/>
<path style="fill:#b1c5d4; stroke:none;" d="M480.667 153.333L481.333 153.667L480.667 153.333z"/>
<path style="fill:#92d1ac; stroke:none;" d="M91 154L91 155L98 155L91 154z"/>
<path style="fill:#9abcd9; stroke:none;" d="M407 157L407 158L436 158L407 157z"/>
<path style="fill:#c1e9d3; stroke:none;" d="M373 158L373 159L378 159L373 158z"/>
<path style="fill:#a3bfd7; stroke:none;" d="M436 158L436 170L437 170L436 158z"/>
<path style="fill:#a8c4e0; stroke:none;" d="M521 158L521 159L527 159L521 158z"/>
<path style="fill:#7dd0a6; stroke:none;" d="M181 159L181 160L186 160L181 159z"/>
<path style="fill:#aedabf; stroke:none;" d="M357.333 159.667L357.667 160.333L357.333 159.667z"/>
<path style="fill:#699ec8; stroke:none;" d="M465 160L465 161L471 161L465 160z"/>
<path style="fill:#d0e5f3; stroke:none;" d="M89 161L89 170L90 170L89 161z"/>
<path style="fill:#4b81a7; stroke:none;" d="M90 161L90 171L131 171L131 170L91 170L92 161L90 161z"/>
<path style="fill:#7da3cb; stroke:none;" d="M92 161L92 162L96 162L92 161z"/>
<path style="fill:#aee1c0; stroke:none;" d="M381.333 161.667L381.667 162.333L381.333 161.667z"/>
<path style="fill:#81b3d6; stroke:none;" d="M536 164L537 170L538 170L536 164z"/>
<path style="fill:#66a2de; stroke:none;" d="M589 165L589 166L591 170L592 170L592 165L589 165z"/>
<path style="fill:#a3d1be; stroke:none;" d="M381.667 169.333L382.333 169.667L381.667 169.333z"/>
<path style="fill:#131313; stroke:none;" d="M556 169C553.911 180.083 549.676 186.182 543 195L624 195L624 176C618.242 175.999 614.543 175.842 610 172L609 172C602.604 177.409 596.72 175.445 589 175.47C584.856 175.483 581.142 177.721 577 177.867C568.791 178.157 562.555 173.078 556 169z"/>
<path style="fill:#a9d5ba; stroke:none;" d="M174.667 170.333L175.333 170.667L174.667 170.333z"/>
<path style="fill:#cdeedd; stroke:none;" d="M287 170L287 171L298 171L287 170z"/>
<path style="fill:#c7dcec; stroke:none;" d="M393 170L393 171L436 171C424.774 166.29 405.219 170 393 170z"/>
<path style="fill:#c7dceb; stroke:none;" d="M518 170L518 171L524 171L518 170z"/>
<path style="fill:#d0deeb; stroke:none;" d="M592 170L592 171L604 171L592 170z"/>
<path style="fill:#ccdcef; stroke:none;" d="M615 170L615 171L627 171L615 170z"/>
<path style="fill:#5c84b8; stroke:none;" d="M461 171L461 172L473 172L461 171z"/>
<path style="fill:#a6b8ca; stroke:none;" d="M511.667 174.333L512.333 174.667L511.667 174.333z"/>
<path style="fill:#749eb7; stroke:none;" d="M503.667 177.333L504.333 177.667L503.667 177.333z"/>
<path style="fill:#8aa5bf; stroke:none;" d="M500.333 179.667L500.667 180.333L500.333 179.667z"/>
<path style="fill:#6d9ac3; stroke:none;" d="M521 182L521 183L527 183L521 182z"/>
<path style="fill:#5e81a9; stroke:none;" d="M517 193L517 194L529 194L517 193z"/>
</svg>
