<?xml version="1.0" standalone="no"?>
<!DOCTYPE svg PUBLIC "-//W3C//DTD SVG 20010904//EN"
 "http://www.w3.org/TR/2001/REC-SVG-20010904/DTD/svg10.dtd">
<svg version="1.0" xmlns="http://www.w3.org/2000/svg"
 width="638.000000pt" height="204.000000pt" viewBox="0 0 638.000000 204.000000"
 preserveAspectRatio="xMidYMid meet">

<g transform="translate(0.000000,204.000000) scale(0.100000,-0.100000)"
fill="#000000" stroke="none">
<path d="M303 1501 c-63 -45 -68 -68 -68 -295 l0 -199 75 1 c95 2 138 -13 164
-57 18 -32 18 -35 2 -88 -17 -54 -17 -56 2 -82 23 -32 55 -38 88 -17 27 18 30
47 14 108 -8 29 -7 45 4 73 20 47 64 65 161 65 l75 0 0 49 c0 28 -4 52 -8 55
-5 3 -28 -2 -53 -11 -42 -15 -46 -15 -91 5 -56 24 -80 58 -85 120 -6 56 22
104 77 134 34 19 59 19 132 2 26 -6 26 -6 30 58 1 34 2 73 0 86 l-3 22 -238 0
-238 0 -40 -29z"/>
<path d="M1098 1173 c-36 -6 -86 -59 -94 -100 -4 -19 -1 -54 6 -78 7 -24 9
-48 5 -54 -3 -6 -31 -11 -61 -11 l-54 0 0 -45 0 -45 40 0 c81 0 167 -59 196
-135 49 -130 -47 -278 -182 -279 l-54 -1 0 -48 0 -48 203 3 c229 3 259 11 299
77 22 35 23 44 23 276 l0 240 -90 5 c-102 6 -93 -5 -79 101 8 63 -14 105 -69
130 -23 10 -46 18 -52 17 -5 0 -22 -3 -37 -5z"/>
<path d="M3930 695 l0 -355 215 0 215 0 0 60 0 59 -150 3 -151 3 0 293 0 292
-65 0 -64 0 0 -355z"/>
<path d="M6150 695 l0 -355 60 0 60 0 0 355 0 355 -60 0 -60 0 0 -355z"/>
<path d="M4562 814 c-90 -45 -132 -120 -132 -236 0 -112 52 -195 149 -236 50
-21 146 -20 203 1 42 16 118 84 118 105 0 4 -21 18 -46 30 l-46 23 -34 -30
c-78 -69 -196 -39 -224 57 l-9 32 191 0 191 0 -7 58 c-17 143 -102 222 -239
222 -48 0 -76 -6 -115 -26z m211 -114 c16 -17 26 -37 24 -43 -2 -8 -40 -13
-113 -14 -137 -2 -139 -1 -120 35 19 38 39 53 79 61 49 11 99 -4 130 -39z"/>
<path d="M5125 819 c-57 -30 -74 -47 -103 -104 -35 -67 -38 -179 -5 -240 25
-47 66 -91 105 -111 69 -36 180 -25 220 22 29 32 38 30 38 -8 0 -56 -19 -106
-51 -132 -59 -50 -134 -43 -184 16 l-25 29 -52 -19 c-29 -11 -54 -24 -55 -29
-8 -22 46 -79 101 -107 118 -61 273 -28 336 71 42 66 52 146 48 397 l-3 219
-55 0 c-49 0 -55 -3 -58 -22 -4 -26 -4 -26 -53 6 -57 37 -147 42 -204 12z
m197 -110 c105 -75 55 -259 -70 -259 -77 0 -142 67 -142 146 0 36 39 102 71
120 38 21 106 17 141 -7z"/>
<path d="M5684 815 c-55 -27 -96 -65 -78 -72 6 -2 26 -14 43 -27 l33 -24 35
24 c37 24 55 29 108 25 41 -3 70 -24 85 -61 17 -41 5 -51 -45 -40 -99 23 -192
3 -244 -54 -36 -38 -42 -131 -12 -180 55 -88 191 -109 265 -41 34 32 46 32 46
0 0 -25 2 -26 58 -23 l57 3 0 180 c0 171 -1 182 -24 221 -35 63 -87 87 -191
91 -75 3 -91 0 -136 -22z m226 -271 c11 -11 1 -50 -22 -83 -19 -27 -79 -50
-113 -43 -64 12 -86 84 -37 122 23 19 37 21 94 18 37 -2 72 -8 78 -14z"/>
</g>
</svg>
